<svg width="217" height="50" viewBox="0 0 217 50" fill="none" xmlns="http://www.w3.org/2000/svg">
<path d="M26.3265 10.176V10.736C25.9531 10.8293 25.5518 11.0813 25.1225 11.492C24.6931 11.884 24.3291 12.5467 24.0305 13.48L18.8785 30.112C18.8038 30.112 18.7198 30.112 18.6265 30.112C18.5518 30.112 18.4771 30.112 18.4025 30.112C18.3091 30.112 18.2251 30.112 18.1505 30.112C18.0758 30.112 18.0011 30.112 17.9265 30.112L11.9905 12.444C11.7665 11.7533 11.5051 11.3053 11.2065 11.1C10.9265 10.876 10.6558 10.7547 10.3945 10.736V10.176C10.7865 10.1947 11.2718 10.2133 11.8505 10.232C12.4291 10.2507 12.9891 10.26 13.5305 10.26C14.2958 10.26 15.0051 10.2507 15.6585 10.232C16.3305 10.2133 16.8625 10.1947 17.2545 10.176V10.736C16.6945 10.7547 16.2465 10.82 15.9105 10.932C15.5931 11.0253 15.4065 11.2307 15.3505 11.548C15.3131 11.8653 15.4065 12.3787 15.6305 13.088L19.7465 25.744L19.2705 26.36L22.7985 15.244C23.1718 14.0867 23.3398 13.1907 23.3025 12.556C23.2838 11.9027 23.0691 11.4453 22.6585 11.184C22.2665 10.904 21.6878 10.7547 20.9225 10.736V10.176C21.4825 10.1947 22.0425 10.2133 22.6025 10.232C23.1625 10.2507 23.7038 10.26 24.2265 10.26C24.6931 10.26 25.0851 10.2507 25.4025 10.232C25.7385 10.2133 26.0465 10.1947 26.3265 10.176ZM6.61445 10.176V10.736C6.16645 10.7733 5.84912 10.8853 5.66245 11.072C5.47579 11.24 5.38245 11.492 5.38245 11.828C5.40112 12.1453 5.49445 12.5653 5.66245 13.088L10.0025 26.052L9.27445 26.864L13.0825 15.02L13.5025 15.72L8.93845 30.112C8.86379 30.112 8.78912 30.112 8.71445 30.112C8.63979 30.112 8.55579 30.112 8.46245 30.112C8.38779 30.112 8.30379 30.112 8.21045 30.112C8.13579 30.112 8.06112 30.112 7.98645 30.112L1.93845 12.528C1.69579 11.8187 1.39712 11.352 1.04245 11.128C0.687786 10.8853 0.36112 10.7547 0.0624531 10.736V10.176C0.510453 10.1947 1.04245 10.2133 1.65845 10.232C2.27445 10.2507 2.87179 10.26 3.45045 10.26C4.12245 10.26 4.72912 10.2507 5.27045 10.232C5.83045 10.2133 6.27845 10.1947 6.61445 10.176ZM34.9723 10.176V10.736C34.3563 10.7547 33.8897 10.8293 33.5723 10.96C33.255 11.072 33.0403 11.296 32.9283 11.632C32.8163 11.9493 32.7603 12.4533 32.7603 13.144V27.032C32.7603 27.704 32.8163 28.208 32.9283 28.544C33.0403 28.88 33.255 29.104 33.5723 29.216C33.8897 29.328 34.3563 29.4027 34.9723 29.44V30C34.5243 29.9627 33.955 29.944 33.2643 29.944C32.5923 29.9253 31.9017 29.916 31.1923 29.916C30.4083 29.916 29.671 29.9253 28.9803 29.944C28.3083 29.944 27.7577 29.9627 27.3283 30V29.44C27.963 29.4027 28.439 29.328 28.7563 29.216C29.0737 29.104 29.279 28.88 29.3723 28.544C29.4843 28.208 29.5403 27.704 29.5403 27.032V13.144C29.5403 12.4533 29.4843 11.9493 29.3723 11.632C29.279 11.296 29.0643 11.072 28.7283 10.96C28.411 10.8293 27.9443 10.7547 27.3283 10.736V10.176C27.7577 10.1947 28.3083 10.2133 28.9803 10.232C29.671 10.2507 30.4083 10.26 31.1923 10.26C31.9017 10.26 32.5923 10.2507 33.2643 10.232C33.955 10.2133 34.5243 10.1947 34.9723 10.176ZM44.8447 10.176V10.736C44.2101 10.7547 43.7247 10.8293 43.3887 10.96C43.0714 11.072 42.8567 11.296 42.7447 11.632C42.6327 11.9493 42.5767 12.4533 42.5767 13.144V27.144C42.5767 27.7787 42.6234 28.2547 42.7167 28.572C42.8287 28.8893 43.0341 29.104 43.3327 29.216C43.6501 29.3093 44.0981 29.356 44.6767 29.356H46.4967C47.2994 29.356 47.9714 29.244 48.5127 29.02C49.0727 28.796 49.5394 28.46 49.9127 28.012C50.2861 27.564 50.5754 26.9853 50.7807 26.276C50.9861 25.5667 51.1447 24.736 51.2567 23.784H51.9007C51.8447 24.3813 51.8167 25.1653 51.8167 26.136C51.8167 26.5093 51.8261 27.06 51.8447 27.788C51.8821 28.4973 51.9381 29.2347 52.0127 30C51.0607 29.9627 49.9874 29.944 48.7927 29.944C47.5981 29.9253 46.5341 29.916 45.6007 29.916C45.1714 29.916 44.6207 29.916 43.9487 29.916C43.2767 29.916 42.5487 29.9253 41.7647 29.944C40.9994 29.944 40.2154 29.9533 39.4127 29.972C38.6287 29.972 37.8727 29.9813 37.1447 30V29.44C37.7794 29.4027 38.2554 29.328 38.5727 29.216C38.8901 29.104 39.0954 28.88 39.1887 28.544C39.3007 28.208 39.3567 27.704 39.3567 27.032V13.144C39.3567 12.4533 39.3007 11.9493 39.1887 11.632C39.0954 11.296 38.8807 11.072 38.5447 10.96C38.2274 10.8293 37.7607 10.7547 37.1447 10.736V10.176C37.5741 10.1947 38.1247 10.2133 38.7967 10.232C39.4874 10.2507 40.2247 10.26 41.0087 10.26C41.7181 10.26 42.4181 10.2507 43.1087 10.232C43.8181 10.2133 44.3967 10.1947 44.8447 10.176ZM61.5244 10.176V10.736C60.8898 10.7547 60.4044 10.8293 60.0684 10.96C59.7511 11.072 59.5364 11.296 59.4244 11.632C59.3124 11.9493 59.2564 12.4533 59.2564 13.144V27.144C59.2564 27.7787 59.3031 28.2547 59.3964 28.572C59.5084 28.8893 59.7138 29.104 60.0124 29.216C60.3298 29.3093 60.7778 29.356 61.3564 29.356H63.1764C63.9791 29.356 64.6511 29.244 65.1924 29.02C65.7524 28.796 66.2191 28.46 66.5924 28.012C66.9658 27.564 67.2551 26.9853 67.4604 26.276C67.6658 25.5667 67.8244 24.736 67.9364 23.784H68.5804C68.5244 24.3813 68.4964 25.1653 68.4964 26.136C68.4964 26.5093 68.5058 27.06 68.5244 27.788C68.5618 28.4973 68.6178 29.2347 68.6924 30C67.7404 29.9627 66.6671 29.944 65.4724 29.944C64.2778 29.9253 63.2138 29.916 62.2804 29.916C61.8511 29.916 61.3004 29.916 60.6284 29.916C59.9564 29.916 59.2284 29.9253 58.4444 29.944C57.6791 29.944 56.8951 29.9533 56.0924 29.972C55.3084 29.972 54.5524 29.9813 53.8244 30V29.44C54.4591 29.4027 54.9351 29.328 55.2524 29.216C55.5698 29.104 55.7751 28.88 55.8684 28.544C55.9804 28.208 56.0364 27.704 56.0364 27.032V13.144C56.0364 12.4533 55.9804 11.9493 55.8684 11.632C55.7751 11.296 55.5604 11.072 55.2244 10.96C54.9071 10.8293 54.4404 10.7547 53.8244 10.736V10.176C54.2538 10.1947 54.8044 10.2133 55.4764 10.232C56.1671 10.2507 56.9044 10.26 57.6884 10.26C58.3978 10.26 59.0978 10.2507 59.7884 10.232C60.4978 10.2133 61.0764 10.1947 61.5244 10.176ZM80.0521 9.784C81.8814 9.784 83.4868 10.1853 84.8681 10.988C86.2681 11.7907 87.3508 12.948 88.1161 14.46C88.8814 15.9533 89.2641 17.7733 89.2641 19.92C89.2641 22.0107 88.8721 23.84 88.0881 25.408C87.3041 26.976 86.2121 28.1987 84.8121 29.076C83.4121 29.9533 81.8161 30.392 80.0241 30.392C78.1761 30.392 76.5614 29.9907 75.1801 29.188C73.7988 28.3853 72.7254 27.228 71.9601 25.716C71.1948 24.204 70.8121 22.384 70.8121 20.256C70.8121 18.1653 71.2041 16.336 71.9881 14.768C72.7908 13.2 73.8828 11.9773 75.2641 11.1C76.6454 10.2227 78.2414 9.784 80.0521 9.784ZM79.9401 10.288C78.7828 10.288 77.7748 10.708 76.9161 11.548C76.0574 12.388 75.3948 13.5453 74.9281 15.02C74.4614 16.4947 74.2281 18.2027 74.2281 20.144C74.2281 22.1227 74.4894 23.8493 75.0121 25.324C75.5348 26.78 76.2441 27.9093 77.1401 28.712C78.0361 29.496 79.0348 29.888 80.1361 29.888C81.2934 29.888 82.2921 29.468 83.1321 28.628C83.9908 27.788 84.6534 26.6307 85.1201 25.156C85.6054 23.6627 85.8481 21.9547 85.8481 20.032C85.8481 18.0347 85.5774 16.308 85.0361 14.852C84.5134 13.396 83.8041 12.276 82.9081 11.492C82.0308 10.6893 81.0414 10.288 79.9401 10.288ZM116.26 10.176V10.736C115.887 10.8293 115.485 11.0813 115.056 11.492C114.627 11.884 114.263 12.5467 113.964 13.48L108.812 30.112C108.737 30.112 108.653 30.112 108.56 30.112C108.485 30.112 108.411 30.112 108.336 30.112C108.243 30.112 108.159 30.112 108.084 30.112C108.009 30.112 107.935 30.112 107.86 30.112L101.924 12.444C101.7 11.7533 101.439 11.3053 101.14 11.1C100.86 10.876 100.589 10.7547 100.328 10.736V10.176C100.72 10.1947 101.205 10.2133 101.784 10.232C102.363 10.2507 102.923 10.26 103.464 10.26C104.229 10.26 104.939 10.2507 105.592 10.232C106.264 10.2133 106.796 10.1947 107.188 10.176V10.736C106.628 10.7547 106.18 10.82 105.844 10.932C105.527 11.0253 105.34 11.2307 105.284 11.548C105.247 11.8653 105.34 12.3787 105.564 13.088L109.68 25.744L109.204 26.36L112.732 15.244C113.105 14.0867 113.273 13.1907 113.236 12.556C113.217 11.9027 113.003 11.4453 112.592 11.184C112.2 10.904 111.621 10.7547 110.856 10.736V10.176C111.416 10.1947 111.976 10.2133 112.536 10.232C113.096 10.2507 113.637 10.26 114.16 10.26C114.627 10.26 115.019 10.2507 115.336 10.232C115.672 10.2133 115.98 10.1947 116.26 10.176ZM96.548 10.176V10.736C96.1 10.7733 95.7827 10.8853 95.596 11.072C95.4094 11.24 95.316 11.492 95.316 11.828C95.3347 12.1453 95.428 12.5653 95.596 13.088L99.936 26.052L99.208 26.864L103.016 15.02L103.436 15.72L98.872 30.112C98.7974 30.112 98.7227 30.112 98.648 30.112C98.5734 30.112 98.4894 30.112 98.396 30.112C98.3214 30.112 98.2374 30.112 98.144 30.112C98.0694 30.112 97.9947 30.112 97.92 30.112L91.872 12.528C91.6294 11.8187 91.3307 11.352 90.976 11.128C90.6214 10.8853 90.2947 10.7547 89.996 10.736V10.176C90.444 10.1947 90.976 10.2133 91.592 10.232C92.208 10.2507 92.8054 10.26 93.384 10.26C94.056 10.26 94.6627 10.2507 95.204 10.232C95.764 10.2133 96.212 10.1947 96.548 10.176ZM137.668 10.176C137.593 10.9227 137.537 11.6507 137.5 12.36C137.481 13.0693 137.472 13.6107 137.472 13.984C137.472 14.4133 137.481 14.824 137.5 15.216C137.518 15.608 137.537 15.944 137.556 16.224H136.912C136.744 14.8613 136.51 13.7973 136.212 13.032C135.932 12.248 135.502 11.688 134.924 11.352C134.345 10.9973 133.514 10.82 132.432 10.82H130.948C130.35 10.82 129.893 10.876 129.576 10.988C129.277 11.0813 129.072 11.2867 128.96 11.604C128.848 11.9027 128.792 12.3787 128.792 13.032V26.976C128.792 27.6667 128.866 28.1893 129.016 28.544C129.165 28.88 129.445 29.104 129.856 29.216C130.266 29.328 130.873 29.3933 131.676 29.412V30C131.172 29.9627 130.518 29.944 129.716 29.944C128.913 29.9253 128.082 29.916 127.224 29.916C126.477 29.916 125.758 29.9253 125.068 29.944C124.396 29.944 123.826 29.9627 123.36 30V29.44C123.994 29.4027 124.47 29.328 124.788 29.216C125.105 29.104 125.31 28.88 125.404 28.544C125.516 28.208 125.572 27.704 125.572 27.032V13.144C125.572 12.4533 125.516 11.9493 125.404 11.632C125.31 11.296 125.096 11.072 124.76 10.96C124.442 10.8293 123.976 10.7547 123.36 10.736V10.176C124.088 10.1947 124.844 10.2133 125.628 10.232C126.43 10.232 127.214 10.2413 127.98 10.26C128.764 10.26 129.492 10.26 130.164 10.26C130.836 10.26 131.386 10.26 131.816 10.26C132.674 10.26 133.645 10.26 134.728 10.26C135.829 10.2413 136.809 10.2133 137.668 10.176ZM133.384 19.976C133.384 19.976 133.384 20.0693 133.384 20.256C133.384 20.4427 133.384 20.536 133.384 20.536H127.952C127.952 20.536 127.952 20.4427 127.952 20.256C127.952 20.0693 127.952 19.976 127.952 19.976H133.384ZM133.972 16.28C133.897 17.344 133.86 18.156 133.86 18.716C133.878 19.276 133.888 19.7893 133.888 20.256C133.888 20.7227 133.897 21.236 133.916 21.796C133.934 22.356 133.981 23.168 134.056 24.232H133.412C133.337 23.616 133.225 23.028 133.076 22.468C132.926 21.8893 132.656 21.4227 132.264 21.068C131.872 20.7133 131.284 20.536 130.5 20.536V19.976C131.097 19.976 131.564 19.8547 131.9 19.612C132.254 19.3693 132.525 19.052 132.712 18.66C132.898 18.268 133.029 17.8667 133.104 17.456C133.197 17.0267 133.272 16.6347 133.328 16.28H133.972ZM148.822 9.784C150.651 9.784 152.256 10.1853 153.638 10.988C155.038 11.7907 156.12 12.948 156.886 14.46C157.651 15.9533 158.034 17.7733 158.034 19.92C158.034 22.0107 157.642 23.84 156.858 25.408C156.074 26.976 154.982 28.1987 153.582 29.076C152.182 29.9533 150.586 30.392 148.794 30.392C146.946 30.392 145.331 29.9907 143.95 29.188C142.568 28.3853 141.495 27.228 140.73 25.716C139.964 24.204 139.582 22.384 139.582 20.256C139.582 18.1653 139.974 16.336 140.758 14.768C141.56 13.2 142.652 11.9773 144.034 11.1C145.415 10.2227 147.011 9.784 148.822 9.784ZM148.71 10.288C147.552 10.288 146.544 10.708 145.686 11.548C144.827 12.388 144.164 13.5453 143.698 15.02C143.231 16.4947 142.998 18.2027 142.998 20.144C142.998 22.1227 143.259 23.8493 143.782 25.324C144.304 26.78 145.014 27.9093 145.91 28.712C146.806 29.496 147.804 29.888 148.906 29.888C150.063 29.888 151.062 29.468 151.902 28.628C152.76 27.788 153.423 26.6307 153.89 25.156C154.375 23.6627 154.618 21.9547 154.618 20.032C154.618 18.0347 154.347 16.308 153.806 14.852C153.283 13.396 152.574 12.276 151.678 11.492C150.8 10.6893 149.811 10.288 148.71 10.288ZM170.04 9.784C171.87 9.784 173.475 10.1853 174.856 10.988C176.256 11.7907 177.339 12.948 178.104 14.46C178.87 15.9533 179.252 17.7733 179.252 19.92C179.252 22.0107 178.86 23.84 178.076 25.408C177.292 26.976 176.2 28.1987 174.8 29.076C173.4 29.9533 171.804 30.392 170.012 30.392C168.164 30.392 166.55 29.9907 165.168 29.188C163.787 28.3853 162.714 27.228 161.948 25.716C161.183 24.204 160.8 22.384 160.8 20.256C160.8 18.1653 161.192 16.336 161.976 14.768C162.779 13.2 163.871 11.9773 165.252 11.1C166.634 10.2227 168.23 9.784 170.04 9.784ZM169.928 10.288C168.771 10.288 167.763 10.708 166.904 11.548C166.046 12.388 165.383 13.5453 164.916 15.02C164.45 16.4947 164.216 18.2027 164.216 20.144C164.216 22.1227 164.478 23.8493 165 25.324C165.523 26.78 166.232 27.9093 167.128 28.712C168.024 29.496 169.023 29.888 170.124 29.888C171.282 29.888 172.28 29.468 173.12 28.628C173.979 27.788 174.642 26.6307 175.108 25.156C175.594 23.6627 175.836 21.9547 175.836 20.032C175.836 18.0347 175.566 16.308 175.024 14.852C174.502 13.396 173.792 12.276 172.896 11.492C172.019 10.6893 171.03 10.288 169.928 10.288ZM189.472 10.176C192.926 10.176 195.492 11.016 197.172 12.696C198.852 14.3573 199.692 16.7467 199.692 19.864C199.692 21.8987 199.282 23.6813 198.46 25.212C197.639 26.724 196.444 27.9 194.876 28.74C193.327 29.58 191.442 30 189.22 30C188.94 30 188.558 29.9907 188.072 29.972C187.606 29.9533 187.12 29.944 186.616 29.944C186.112 29.9253 185.655 29.916 185.244 29.916C184.535 29.916 183.835 29.9253 183.144 29.944C182.472 29.944 181.922 29.9627 181.492 30V29.44C182.127 29.4027 182.603 29.328 182.92 29.216C183.238 29.104 183.443 28.88 183.536 28.544C183.648 28.208 183.704 27.704 183.704 27.032V13.144C183.704 12.4533 183.648 11.9493 183.536 11.632C183.443 11.296 183.228 11.072 182.892 10.96C182.575 10.8293 182.108 10.7547 181.492 10.736V10.176C181.922 10.1947 182.472 10.2227 183.144 10.26C183.835 10.2787 184.516 10.2787 185.188 10.26C185.86 10.2413 186.607 10.2227 187.428 10.204C188.268 10.1853 188.95 10.176 189.472 10.176ZM188.996 10.68C188.138 10.68 187.578 10.8387 187.316 11.156C187.055 11.4733 186.924 12.1173 186.924 13.088V27.088C186.924 28.0587 187.055 28.7027 187.316 29.02C187.596 29.3373 188.166 29.496 189.024 29.496C190.91 29.496 192.375 29.132 193.42 28.404C194.466 27.6573 195.203 26.5747 195.632 25.156C196.062 23.7373 196.276 22.0107 196.276 19.976C196.276 17.8853 196.043 16.1587 195.576 14.796C195.11 13.4147 194.344 12.388 193.28 11.716C192.235 11.0253 190.807 10.68 188.996 10.68ZM208.574 9.84C209.564 9.84 210.32 9.952 210.842 10.176C211.365 10.4 211.822 10.6427 212.214 10.904C212.438 11.0347 212.616 11.1373 212.746 11.212C212.896 11.268 213.036 11.296 213.166 11.296C213.353 11.296 213.484 11.1933 213.558 10.988C213.652 10.7827 213.726 10.4747 213.782 10.064H214.426C214.408 10.4 214.38 10.8013 214.342 11.268C214.324 11.716 214.305 12.3133 214.286 13.06C214.286 13.8067 214.286 14.7867 214.286 16H213.642C213.586 15.0853 213.381 14.1987 213.026 13.34C212.69 12.4813 212.186 11.7813 211.514 11.24C210.861 10.6987 210.021 10.428 208.994 10.428C208.042 10.428 207.249 10.7173 206.614 11.296C205.998 11.856 205.69 12.6027 205.69 13.536C205.69 14.3573 205.896 15.048 206.306 15.608C206.717 16.1493 207.277 16.6627 207.986 17.148C208.714 17.6147 209.536 18.1373 210.45 18.716C211.384 19.3133 212.224 19.9107 212.97 20.508C213.717 21.0867 214.305 21.7307 214.734 22.44C215.164 23.1493 215.378 24.008 215.378 25.016C215.378 26.2293 215.089 27.2373 214.51 28.04C213.95 28.824 213.194 29.412 212.242 29.804C211.29 30.196 210.245 30.392 209.106 30.392C208.061 30.392 207.23 30.28 206.614 30.056C205.998 29.832 205.476 29.5987 205.046 29.356C204.636 29.0947 204.318 28.964 204.094 28.964C203.908 28.964 203.768 29.0667 203.674 29.272C203.6 29.4773 203.534 29.7853 203.478 30.196H202.834C202.872 29.7853 202.89 29.3093 202.89 28.768C202.909 28.208 202.918 27.48 202.918 26.584C202.937 25.688 202.946 24.5587 202.946 23.196H203.59C203.665 24.3533 203.87 25.436 204.206 26.444C204.561 27.452 205.093 28.264 205.802 28.88C206.53 29.4773 207.492 29.776 208.686 29.776C209.321 29.776 209.909 29.6547 210.45 29.412C210.992 29.1693 211.43 28.7867 211.766 28.264C212.102 27.7413 212.27 27.0693 212.27 26.248C212.27 25.4827 212.084 24.8107 211.71 24.232C211.356 23.6533 210.852 23.1213 210.198 22.636C209.564 22.132 208.817 21.6187 207.958 21.096C207.081 20.536 206.26 19.976 205.494 19.416C204.729 18.856 204.113 18.2027 203.646 17.456C203.198 16.7093 202.974 15.8227 202.974 14.796C202.974 13.6573 203.236 12.724 203.758 11.996C204.3 11.268 204.99 10.7267 205.83 10.372C206.689 10.0173 207.604 9.84 208.574 9.84Z" fill="currentColor"/>
<line x1="44.5" y1="44.25" x2="68.5" y2="44.25" stroke="currentColor" stroke-width="0.5"/>
<path d="M79.2801 47.096C78.8428 47.096 78.4481 46.9893 78.0961 46.776C77.7495 46.5573 77.4775 46.2453 77.2801 45.84C77.0828 45.4347 76.9841 44.9467 76.9841 44.376C76.9841 43.9547 77.0401 43.576 77.1521 43.24C77.2695 42.904 77.4348 42.6187 77.6481 42.384C77.8615 42.144 78.1068 41.9627 78.3841 41.84C78.6668 41.7173 78.9761 41.656 79.3121 41.656C79.6268 41.656 79.9068 41.72 80.1521 41.848C80.4028 41.976 80.6028 42.128 80.7521 42.304L80.3921 42.712C80.2535 42.5627 80.0935 42.448 79.9121 42.368C79.7361 42.2827 79.5388 42.24 79.3201 42.24C78.9948 42.24 78.7068 42.328 78.4561 42.504C78.2108 42.6747 78.0188 42.92 77.8801 43.24C77.7415 43.5547 77.6721 43.928 77.6721 44.36C77.6721 44.8027 77.7388 45.184 77.8721 45.504C78.0055 45.824 78.1975 46.072 78.4481 46.248C78.6988 46.4187 78.9921 46.504 79.3281 46.504C79.5735 46.504 79.7921 46.4587 79.9841 46.368C80.1815 46.272 80.3601 46.1333 80.5201 45.952L80.8721 46.344C80.6641 46.584 80.4321 46.7707 80.1761 46.904C79.9201 47.032 79.6215 47.096 79.2801 47.096ZM82.8184 47V41.752H85.8424V42.312H83.4824V43.96H85.4744V44.528H83.4824V46.432H85.9224V47H82.8184ZM88.8452 47V44.968L87.2692 41.752H87.9812L88.6612 43.232C88.7412 43.424 88.8212 43.6133 88.9012 43.8C88.9865 43.9867 89.0745 44.1787 89.1652 44.376H89.1972C89.2932 44.1787 89.3839 43.9867 89.4692 43.8C89.5599 43.6133 89.6452 43.424 89.7252 43.232L90.3972 41.752H91.0932L89.5092 44.968V47H88.8452ZM92.7619 47V41.752H93.4259V46.432H95.7219V47H92.7619ZM99.3454 47.096C98.908 47.096 98.5187 46.984 98.1774 46.76C97.8414 46.536 97.5774 46.2187 97.3854 45.808C97.1987 45.3973 97.1054 44.912 97.1054 44.352C97.1054 43.792 97.1987 43.312 97.3854 42.912C97.5774 42.5067 97.8414 42.1973 98.1774 41.984C98.5187 41.7653 98.908 41.656 99.3454 41.656C99.788 41.656 100.177 41.7653 100.513 41.984C100.849 42.1973 101.113 42.5067 101.305 42.912C101.497 43.312 101.593 43.792 101.593 44.352C101.593 44.912 101.497 45.3973 101.305 45.808C101.113 46.2187 100.849 46.536 100.513 46.76C100.177 46.984 99.788 47.096 99.3454 47.096ZM99.3454 46.504C99.66 46.504 99.932 46.416 100.161 46.24C100.396 46.064 100.577 45.816 100.705 45.496C100.833 45.1707 100.897 44.7893 100.897 44.352C100.897 43.92 100.833 43.5467 100.705 43.232C100.577 42.9173 100.396 42.6747 100.161 42.504C99.932 42.328 99.66 42.24 99.3454 42.24C99.036 42.24 98.764 42.328 98.5294 42.504C98.2947 42.6747 98.1134 42.9173 97.9854 43.232C97.8574 43.5467 97.7934 43.92 97.7934 44.352C97.7934 44.7893 97.8574 45.1707 97.9854 45.496C98.1134 45.816 98.2947 46.064 98.5294 46.24C98.764 46.416 99.036 46.504 99.3454 46.504ZM103.682 47V41.752H104.41L106.274 45.016C106.375 45.192 106.471 45.376 106.562 45.568C106.653 45.7547 106.743 45.9467 106.834 46.144H106.866C106.85 45.872 106.831 45.5947 106.81 45.312C106.789 45.024 106.778 44.7467 106.778 44.48V41.752H107.418V47H106.69L104.826 43.736C104.73 43.56 104.631 43.376 104.53 43.184C104.434 42.992 104.343 42.8 104.258 42.608H104.226C104.247 42.8693 104.266 43.1387 104.282 43.416C104.303 43.6933 104.314 43.9733 104.314 44.256V47H103.682ZM113.839 47.096C113.466 47.096 113.124 47.0267 112.815 46.888C112.506 46.744 112.234 46.552 111.999 46.312L112.375 45.88C112.562 46.0773 112.783 46.232 113.039 46.344C113.3 46.456 113.57 46.512 113.847 46.512C114.194 46.512 114.463 46.4347 114.655 46.28C114.847 46.12 114.943 45.912 114.943 45.656C114.943 45.4747 114.903 45.3307 114.823 45.224C114.748 45.1173 114.644 45.0267 114.511 44.952C114.383 44.8773 114.236 44.8027 114.071 44.728L113.319 44.4C113.148 44.3253 112.98 44.232 112.815 44.12C112.655 44.008 112.522 43.8667 112.415 43.696C112.308 43.52 112.255 43.304 112.255 43.048C112.255 42.7813 112.324 42.544 112.463 42.336C112.607 42.1227 112.802 41.9573 113.047 41.84C113.298 41.7173 113.583 41.656 113.903 41.656C114.223 41.656 114.516 41.7147 114.783 41.832C115.05 41.9493 115.274 42.1013 115.455 42.288L115.095 42.72C114.93 42.576 114.748 42.4613 114.551 42.376C114.354 42.2853 114.138 42.24 113.903 42.24C113.61 42.24 113.372 42.3093 113.191 42.448C113.015 42.5867 112.927 42.7733 112.927 43.008C112.927 43.1733 112.97 43.3093 113.055 43.416C113.14 43.5227 113.25 43.6107 113.383 43.68C113.522 43.7493 113.66 43.816 113.799 43.88L114.543 44.2C114.751 44.2907 114.935 44.3947 115.095 44.512C115.26 44.6293 115.388 44.776 115.479 44.952C115.575 45.128 115.623 45.344 115.623 45.6C115.623 45.8773 115.551 46.1307 115.407 46.36C115.268 46.584 115.063 46.7627 114.791 46.896C114.524 47.0293 114.207 47.096 113.839 47.096ZM117.617 47V41.752H119.113C119.507 41.752 119.851 41.8027 120.145 41.904C120.438 42 120.667 42.16 120.833 42.384C120.998 42.608 121.081 42.912 121.081 43.296C121.081 43.664 120.998 43.968 120.833 44.208C120.673 44.4427 120.446 44.6213 120.153 44.744C119.865 44.8613 119.529 44.92 119.145 44.92H118.281V47H117.617ZM118.281 44.376H119.065C119.523 44.376 119.862 44.288 120.081 44.112C120.305 43.936 120.417 43.664 120.417 43.296C120.417 42.9173 120.299 42.656 120.065 42.512C119.835 42.3627 119.491 42.288 119.033 42.288H118.281V44.376ZM123.108 47V41.752H123.772V47H123.108ZM128.161 47.096C127.724 47.096 127.329 46.9893 126.977 46.776C126.631 46.5573 126.359 46.2453 126.161 45.84C125.964 45.4347 125.865 44.9467 125.865 44.376C125.865 43.9547 125.921 43.576 126.033 43.24C126.151 42.904 126.316 42.6187 126.529 42.384C126.743 42.144 126.988 41.9627 127.265 41.84C127.548 41.7173 127.857 41.656 128.193 41.656C128.508 41.656 128.788 41.72 129.033 41.848C129.284 41.976 129.484 42.128 129.633 42.304L129.273 42.712C129.135 42.5627 128.975 42.448 128.793 42.368C128.617 42.2827 128.42 42.24 128.201 42.24C127.876 42.24 127.588 42.328 127.337 42.504C127.092 42.6747 126.9 42.92 126.761 43.24C126.623 43.5547 126.553 43.928 126.553 44.36C126.553 44.8027 126.62 45.184 126.753 45.504C126.887 45.824 127.079 46.072 127.329 46.248C127.58 46.4187 127.873 46.504 128.209 46.504C128.455 46.504 128.673 46.4587 128.865 46.368C129.063 46.272 129.241 46.1333 129.401 45.952L129.753 46.344C129.545 46.584 129.313 46.7707 129.057 46.904C128.801 47.032 128.503 47.096 128.161 47.096ZM131.7 47V41.752H134.724V42.312H132.364V43.96H134.356V44.528H132.364V46.432H134.804V47H131.7ZM138.334 47.096C137.961 47.096 137.62 47.0267 137.31 46.888C137.001 46.744 136.729 46.552 136.494 46.312L136.87 45.88C137.057 46.0773 137.278 46.232 137.534 46.344C137.796 46.456 138.065 46.512 138.342 46.512C138.689 46.512 138.958 46.4347 139.15 46.28C139.342 46.12 139.438 45.912 139.438 45.656C139.438 45.4747 139.398 45.3307 139.318 45.224C139.244 45.1173 139.14 45.0267 139.006 44.952C138.878 44.8773 138.732 44.8027 138.566 44.728L137.814 44.4C137.644 44.3253 137.476 44.232 137.31 44.12C137.15 44.008 137.017 43.8667 136.91 43.696C136.804 43.52 136.75 43.304 136.75 43.048C136.75 42.7813 136.82 42.544 136.958 42.336C137.102 42.1227 137.297 41.9573 137.542 41.84C137.793 41.7173 138.078 41.656 138.398 41.656C138.718 41.656 139.012 41.7147 139.278 41.832C139.545 41.9493 139.769 42.1013 139.95 42.288L139.59 42.72C139.425 42.576 139.244 42.4613 139.046 42.376C138.849 42.2853 138.633 42.24 138.398 42.24C138.105 42.24 137.868 42.3093 137.686 42.448C137.51 42.5867 137.422 42.7733 137.422 43.008C137.422 43.1733 137.465 43.3093 137.55 43.416C137.636 43.5227 137.745 43.6107 137.878 43.68C138.017 43.7493 138.156 43.816 138.294 43.88L139.038 44.2C139.246 44.2907 139.43 44.3947 139.59 44.512C139.756 44.6293 139.884 44.776 139.974 44.952C140.07 45.128 140.118 45.344 140.118 45.6C140.118 45.8773 140.046 46.1307 139.902 46.36C139.764 46.584 139.558 46.7627 139.286 46.896C139.02 47.0293 138.702 47.096 138.334 47.096Z" fill="currentColor"/>
<line x1="148.5" y1="44.25" x2="172.5" y2="44.25" stroke="currentColor" stroke-width="0.5"/>
</svg>
